<svg width="136" height="40" viewBox="0 0 136 40" fill="none" xmlns="http://www.w3.org/2000/svg">
<rect opacity="0.8" y="4" width="22" height="36" rx="3" fill="#EBA417"/>
<rect opacity="0.8" x="8" width="22" height="36" rx="3" fill="#61DCFB"/>
<path d="M41.2557 12.3636V24H39.1477V12.3636H41.2557ZM45.5043 18.8864V24H43.4474V15.2727H45.4134V16.7557H45.5156C45.7164 16.267 46.0365 15.8788 46.4759 15.5909C46.919 15.303 47.4664 15.1591 48.1179 15.1591C48.7202 15.1591 49.2448 15.2879 49.6918 15.5455C50.1425 15.803 50.491 16.1761 50.7372 16.6648C50.9872 17.1534 51.1103 17.7462 51.1065 18.4432V24H49.0497V18.7614C49.0497 18.178 48.8982 17.7216 48.5952 17.392C48.2959 17.0625 47.8812 16.8977 47.3509 16.8977C46.991 16.8977 46.6709 16.9773 46.3906 17.1364C46.1141 17.2917 45.8963 17.517 45.7372 17.8125C45.5819 18.108 45.5043 18.4659 45.5043 18.8864ZM60.0952 17.5795L58.2202 17.7841C58.1671 17.5947 58.0743 17.4167 57.9418 17.25C57.813 17.0833 57.6387 16.9489 57.419 16.8466C57.1993 16.7443 56.9304 16.6932 56.6122 16.6932C56.1842 16.6932 55.8243 16.786 55.5327 16.9716C55.2448 17.1572 55.1027 17.3977 55.1065 17.6932C55.1027 17.947 55.1955 18.1534 55.3849 18.3125C55.5781 18.4716 55.8963 18.6023 56.3395 18.7045L57.8281 19.0227C58.6539 19.2008 59.2675 19.483 59.669 19.8693C60.0743 20.2557 60.2789 20.7614 60.2827 21.3864C60.2789 21.9356 60.1179 22.4205 59.7997 22.8409C59.4853 23.2576 59.0478 23.5833 58.4872 23.8182C57.9266 24.053 57.2827 24.1705 56.5554 24.1705C55.4872 24.1705 54.6274 23.947 53.9759 23.5C53.3243 23.0492 52.9361 22.4223 52.8111 21.6193L54.8168 21.4261C54.9077 21.8201 55.1009 22.1174 55.3963 22.3182C55.6918 22.5189 56.0762 22.6193 56.5497 22.6193C57.0384 22.6193 57.4304 22.5189 57.7259 22.3182C58.0251 22.1174 58.1747 21.8693 58.1747 21.5739C58.1747 21.3239 58.0781 21.1174 57.8849 20.9545C57.6955 20.7917 57.4001 20.6667 56.9986 20.5795L55.5099 20.267C54.6728 20.0928 54.0535 19.7992 53.652 19.3864C53.2505 18.9697 53.0516 18.4432 53.0554 17.8068C53.0516 17.2689 53.1974 16.803 53.4929 16.4091C53.7921 16.0114 54.2069 15.7045 54.7372 15.4886C55.2713 15.2689 55.8868 15.1591 56.5838 15.1591C57.6065 15.1591 58.4115 15.3769 58.9986 15.8125C59.5895 16.2481 59.955 16.8371 60.0952 17.5795ZM66.3366 15.2727V16.8636H61.3196V15.2727H66.3366ZM62.5582 13.1818H64.6151V21.375C64.6151 21.6515 64.6567 21.8636 64.7401 22.0114C64.8272 22.1553 64.9408 22.2538 65.081 22.3068C65.2211 22.3598 65.3764 22.3864 65.5469 22.3864C65.6757 22.3864 65.7931 22.3769 65.8991 22.358C66.009 22.339 66.0923 22.322 66.1491 22.3068L66.4957 23.9148C66.3859 23.9527 66.2287 23.9943 66.0241 24.0398C65.8234 24.0852 65.5772 24.1117 65.2855 24.1193C64.7704 24.1345 64.3063 24.0568 63.8935 23.8864C63.4806 23.7121 63.1529 23.4432 62.9105 23.0795C62.6719 22.7159 62.5545 22.2614 62.5582 21.7159V13.1818ZM70.5682 24.1761C70.0152 24.1761 69.517 24.0777 69.0739 23.8807C68.6345 23.6799 68.286 23.3845 68.0284 22.9943C67.7746 22.6042 67.6477 22.1231 67.6477 21.5511C67.6477 21.0587 67.7386 20.6515 67.9205 20.3295C68.1023 20.0076 68.3504 19.75 68.6648 19.5568C68.9792 19.3636 69.3333 19.2178 69.7273 19.1193C70.125 19.017 70.536 18.9432 70.9602 18.8977C71.4716 18.8447 71.8864 18.7973 72.2045 18.7557C72.5227 18.7102 72.7538 18.642 72.8977 18.5511C73.0455 18.4564 73.1193 18.3106 73.1193 18.1136V18.0795C73.1193 17.6515 72.9924 17.3201 72.7386 17.0852C72.4848 16.8504 72.1193 16.733 71.642 16.733C71.1383 16.733 70.7386 16.8428 70.4432 17.0625C70.1515 17.2822 69.9545 17.5417 69.8523 17.8409L67.9318 17.5682C68.0833 17.0379 68.3333 16.5947 68.6818 16.2386C69.0303 15.8788 69.4564 15.6098 69.9602 15.4318C70.464 15.25 71.0208 15.1591 71.6307 15.1591C72.0511 15.1591 72.4697 15.2083 72.8864 15.3068C73.303 15.4053 73.6837 15.5682 74.0284 15.7955C74.3731 16.0189 74.6496 16.3239 74.858 16.7102C75.0701 17.0966 75.1761 17.5795 75.1761 18.1591V24H73.1989V22.8011H73.1307C73.0057 23.0436 72.8295 23.2708 72.6023 23.483C72.3788 23.6913 72.0966 23.8598 71.7557 23.9886C71.4186 24.1136 71.0227 24.1761 70.5682 24.1761ZM71.1023 22.6648C71.5152 22.6648 71.8731 22.5833 72.1761 22.4205C72.4792 22.2538 72.7121 22.0341 72.875 21.7614C73.0417 21.4886 73.125 21.1913 73.125 20.8693V19.8409C73.0606 19.8939 72.9508 19.9432 72.7955 19.9886C72.6439 20.0341 72.4735 20.0739 72.2841 20.108C72.0947 20.142 71.9072 20.1723 71.7216 20.1989C71.536 20.2254 71.375 20.2481 71.2386 20.267C70.9318 20.3087 70.6572 20.3769 70.4148 20.4716C70.1723 20.5663 69.9811 20.6989 69.8409 20.8693C69.7008 21.036 69.6307 21.2519 69.6307 21.517C69.6307 21.8958 69.7689 22.1818 70.0455 22.375C70.322 22.5682 70.6742 22.6648 71.1023 22.6648ZM79.3011 18.8864V24H77.2443V15.2727H79.2102V16.7557H79.3125C79.5133 16.267 79.8333 15.8788 80.2727 15.5909C80.7159 15.303 81.2633 15.1591 81.9148 15.1591C82.517 15.1591 83.0417 15.2879 83.4886 15.5455C83.9394 15.803 84.2879 16.1761 84.5341 16.6648C84.7841 17.1534 84.9072 17.7462 84.9034 18.4432V24H82.8466V18.7614C82.8466 18.178 82.6951 17.7216 82.392 17.392C82.0928 17.0625 81.678 16.8977 81.1477 16.8977C80.7879 16.8977 80.4678 16.9773 80.1875 17.1364C79.911 17.2917 79.6932 17.517 79.5341 17.8125C79.3788 18.108 79.3011 18.4659 79.3011 18.8864ZM91.3523 15.2727V16.8636H86.3352V15.2727H91.3523ZM87.5739 13.1818H89.6307V21.375C89.6307 21.6515 89.6723 21.8636 89.7557 22.0114C89.8428 22.1553 89.9564 22.2538 90.0966 22.3068C90.2367 22.3598 90.392 22.3864 90.5625 22.3864C90.6913 22.3864 90.8087 22.3769 90.9148 22.358C91.0246 22.339 91.108 22.322 91.1648 22.3068L91.5114 23.9148C91.4015 23.9527 91.2443 23.9943 91.0398 24.0398C90.839 24.0852 90.5928 24.1117 90.3011 24.1193C89.786 24.1345 89.322 24.0568 88.9091 23.8864C88.4962 23.7121 88.1686 23.4432 87.9261 23.0795C87.6875 22.7159 87.5701 22.2614 87.5739 21.7159V13.1818ZM102.913 12.3636V24H101.038L95.5554 16.0739H95.4588V24H93.3509V12.3636H95.2372L100.714 20.2955H100.817V12.3636H102.913ZM108.983 24.1705C108.108 24.1705 107.352 23.9886 106.716 23.625C106.083 23.2576 105.597 22.7386 105.256 22.0682C104.915 21.3939 104.744 20.6004 104.744 19.6875C104.744 18.7898 104.915 18.0019 105.256 17.3239C105.6 16.642 106.081 16.1117 106.699 15.733C107.316 15.3504 108.042 15.1591 108.875 15.1591C109.413 15.1591 109.92 15.2462 110.398 15.4205C110.879 15.5909 111.303 15.8561 111.67 16.2159C112.042 16.5758 112.333 17.0341 112.545 17.5909C112.758 18.1439 112.864 18.803 112.864 19.5682V20.1989H105.71V18.8125H110.892C110.888 18.4186 110.803 18.0682 110.636 17.7614C110.47 17.4508 110.237 17.2064 109.938 17.0284C109.642 16.8504 109.297 16.7614 108.903 16.7614C108.483 16.7614 108.114 16.8636 107.795 17.0682C107.477 17.2689 107.229 17.5341 107.051 17.8636C106.877 18.1894 106.788 18.5473 106.784 18.9375V20.1477C106.784 20.6553 106.877 21.0909 107.062 21.4545C107.248 21.8144 107.508 22.0909 107.841 22.2841C108.174 22.4735 108.564 22.5682 109.011 22.5682C109.311 22.5682 109.581 22.5265 109.824 22.4432C110.066 22.3561 110.277 22.2292 110.455 22.0625C110.633 21.8958 110.767 21.6894 110.858 21.4432L112.778 21.6591C112.657 22.1667 112.426 22.6098 112.085 22.9886C111.748 23.3636 111.316 23.6553 110.79 23.8636C110.263 24.0682 109.661 24.1705 108.983 24.1705ZM116.358 24L113.892 15.2727H115.989L117.523 21.4091H117.602L119.17 15.2727H121.244L122.812 21.375H122.898L124.409 15.2727H126.511L124.04 24H121.898L120.261 18.1023H120.142L118.506 24H116.358ZM134.845 17.5795L132.97 17.7841C132.917 17.5947 132.824 17.4167 132.692 17.25C132.563 17.0833 132.389 16.9489 132.169 16.8466C131.949 16.7443 131.68 16.6932 131.362 16.6932C130.934 16.6932 130.574 16.786 130.283 16.9716C129.995 17.1572 129.853 17.3977 129.857 17.6932C129.853 17.947 129.946 18.1534 130.135 18.3125C130.328 18.4716 130.646 18.6023 131.089 18.7045L132.578 19.0227C133.404 19.2008 134.018 19.483 134.419 19.8693C134.824 20.2557 135.029 20.7614 135.033 21.3864C135.029 21.9356 134.868 22.4205 134.55 22.8409C134.235 23.2576 133.798 23.5833 133.237 23.8182C132.677 24.053 132.033 24.1705 131.305 24.1705C130.237 24.1705 129.377 23.947 128.726 23.5C128.074 23.0492 127.686 22.4223 127.561 21.6193L129.567 21.4261C129.658 21.8201 129.851 22.1174 130.146 22.3182C130.442 22.5189 130.826 22.6193 131.3 22.6193C131.788 22.6193 132.18 22.5189 132.476 22.3182C132.775 22.1174 132.925 21.8693 132.925 21.5739C132.925 21.3239 132.828 21.1174 132.635 20.9545C132.446 20.7917 132.15 20.6667 131.749 20.5795L130.26 20.267C129.423 20.0928 128.804 19.7992 128.402 19.3864C128 18.9697 127.802 18.4432 127.805 17.8068C127.802 17.2689 127.947 16.803 128.243 16.4091C128.542 16.0114 128.957 15.7045 129.487 15.4886C130.021 15.2689 130.637 15.1591 131.334 15.1591C132.357 15.1591 133.161 15.3769 133.749 15.8125C134.339 16.2481 134.705 16.8371 134.845 17.5795Z" fill="white"/>
</svg>
